<svg width="323" height="58" viewBox="0 0 323 58" fill="none" xmlns="http://www.w3.org/2000/svg">
<g filter="url(#filter0_b_7_13885)">
<path d="M33.1247 27.306C33.1247 26.658 33.2267 26.094 33.4307 25.614C33.6347 25.134 33.9047 24.726 34.2407 24.39C34.5887 24.054 34.9787 23.79 35.4107 23.598C35.8547 23.394 36.3167 23.244 36.7967 23.148C36.8207 22.956 36.8327 22.758 36.8327 22.554C36.8447 22.338 36.8627 22.146 36.8867 21.978C36.9227 21.81 36.9707 21.672 37.0307 21.564C37.0907 21.456 37.1807 21.402 37.3007 21.402C37.9007 21.402 38.3027 21.552 38.5067 21.852C38.7227 22.14 38.8307 22.554 38.8307 23.094C39.6707 23.226 40.2947 23.526 40.7027 23.994C41.1227 24.45 41.3327 25.02 41.3327 25.704C41.3327 26.376 41.1467 26.892 40.7747 27.252C40.4027 27.6 39.8687 27.774 39.1727 27.774C38.9567 27.774 38.8187 27.756 38.7587 27.72C38.6987 27.672 38.6687 27.582 38.6687 27.45C38.6687 27.33 38.6567 27.174 38.6327 26.982C38.6207 26.79 38.5787 26.604 38.5067 26.424C38.4347 26.244 38.3207 26.094 38.1647 25.974C38.0087 25.842 37.7927 25.776 37.5167 25.776C37.1327 25.776 36.7907 25.896 36.4907 26.136C36.1907 26.364 36.0407 26.664 36.0407 27.036C36.0407 27.36 36.1607 27.624 36.4007 27.828C36.6527 28.032 36.9647 28.224 37.3367 28.404C37.7087 28.572 38.1107 28.746 38.5427 28.926C38.9867 29.106 39.3947 29.346 39.7667 29.646C40.1387 29.934 40.4447 30.3 40.6847 30.744C40.9367 31.176 41.0627 31.728 41.0627 32.4C41.0627 33.36 40.7867 34.182 40.2347 34.866C39.6827 35.55 38.8547 35.97 37.7507 36.126L37.6067 37.512C37.5827 37.656 37.5467 37.752 37.4987 37.8C37.4627 37.848 37.3667 37.872 37.2107 37.872C36.9107 37.872 36.6647 37.83 36.4727 37.746C36.2807 37.674 36.1307 37.56 36.0227 37.404C35.9147 37.26 35.8367 37.074 35.7887 36.846C35.7527 36.63 35.7347 36.378 35.7347 36.09C35.2787 36.018 34.8647 35.91 34.4927 35.766C34.1207 35.61 33.8027 35.448 33.5387 35.28C33.2747 35.1 33.0647 34.92 32.9087 34.74C32.7647 34.548 32.6927 34.368 32.6927 34.2C32.6927 33.408 32.7347 32.838 32.8187 32.49C32.9147 32.142 33.0827 31.968 33.3227 31.968C33.4907 31.968 33.6647 32.04 33.8447 32.184C34.0367 32.328 34.2527 32.49 34.4927 32.67C34.7327 32.85 35.0087 33.012 35.3207 33.156C35.6447 33.3 36.0167 33.372 36.4367 33.372C36.6047 33.372 36.7667 33.36 36.9227 33.336C37.0907 33.3 37.2347 33.246 37.3547 33.174C37.4867 33.102 37.5887 33.006 37.6607 32.886C37.7447 32.766 37.7867 32.622 37.7867 32.454C37.7867 32.154 37.6727 31.914 37.4447 31.734C37.2167 31.554 36.9287 31.392 36.5807 31.248C36.2327 31.092 35.8547 30.936 35.4467 30.78C35.0507 30.612 34.6787 30.39 34.3307 30.114C33.9827 29.826 33.6947 29.46 33.4667 29.016C33.2387 28.572 33.1247 28.002 33.1247 27.306ZM51.6165 26.406C51.6165 26.982 51.5085 27.54 51.2925 28.08C51.0885 28.608 50.8245 29.112 50.5005 29.592C50.1765 30.06 49.8105 30.504 49.4025 30.924C49.0065 31.332 48.6105 31.704 48.2145 32.04C47.8305 32.364 47.4705 32.652 47.1345 32.904C46.7985 33.144 46.5405 33.336 46.3605 33.48H50.9325C51.0045 33.48 51.0705 33.498 51.1305 33.534C51.1905 33.57 51.2205 33.636 51.2205 33.732L51.1485 34.794C51.1245 35.154 51.0225 35.448 50.8425 35.676C50.6745 35.892 50.3205 36 49.7805 36H43.8765C43.2645 36 42.8325 35.904 42.5805 35.712C42.3405 35.508 42.2205 35.166 42.2205 34.686V33.606C42.2205 33.546 42.2325 33.474 42.2565 33.39C42.2925 33.306 42.3225 33.24 42.3465 33.192C42.4545 32.988 42.6765 32.736 43.0125 32.436C43.3605 32.136 43.7505 31.812 44.1825 31.464C44.6265 31.116 45.0885 30.744 45.5685 30.348C46.0605 29.952 46.5045 29.55 46.9005 29.142C47.3085 28.734 47.6445 28.332 47.9085 27.936C48.1725 27.528 48.3045 27.138 48.3045 26.766C48.3045 26.466 48.2025 26.214 47.9985 26.01C47.7945 25.794 47.4645 25.686 47.0085 25.686C46.7205 25.686 46.4805 25.764 46.2885 25.92C46.1085 26.076 45.9585 26.274 45.8385 26.514C45.7305 26.742 45.6465 27 45.5865 27.288C45.5385 27.564 45.5025 27.822 45.4785 28.062C45.4545 28.182 45.4125 28.266 45.3525 28.314C45.3045 28.362 45.1545 28.386 44.9025 28.386C43.5705 28.386 42.9045 27.744 42.9045 26.46C42.9045 25.836 43.0365 25.308 43.3005 24.876C43.5765 24.444 43.9365 24.09 44.3805 23.814C44.8245 23.538 45.3165 23.34 45.8565 23.22C46.4085 23.088 46.9665 23.022 47.5305 23.022C48.3345 23.022 49.0005 23.13 49.5285 23.346C50.0565 23.55 50.4765 23.82 50.7885 24.156C51.1005 24.48 51.3165 24.846 51.4365 25.254C51.5565 25.65 51.6165 26.034 51.6165 26.406ZM58.9983 23.022C59.7903 23.022 60.4623 23.148 61.0143 23.4C61.5663 23.64 62.0163 24 62.3643 24.48C62.7123 24.948 62.9643 25.524 63.1203 26.208C63.2883 26.88 63.3723 27.648 63.3723 28.512C63.3723 28.992 63.3423 29.514 63.2823 30.078C63.2223 30.642 63.1143 31.212 62.9583 31.788C62.8023 32.352 62.5863 32.898 62.3103 33.426C62.0343 33.954 61.6803 34.422 61.2483 34.83C60.8163 35.238 60.2943 35.568 59.6823 35.82C59.0823 36.06 58.3683 36.18 57.5403 36.18C56.6523 36.18 55.9143 36.03 55.3263 35.73C54.7503 35.43 54.2823 35.028 53.9223 34.524C53.5743 34.008 53.3283 33.402 53.1843 32.706C53.0403 32.01 52.9683 31.266 52.9683 30.474C52.9683 29.538 53.0643 28.626 53.2563 27.738C53.4603 26.838 53.7963 26.04 54.2643 25.344C54.7323 24.648 55.3503 24.09 56.1183 23.67C56.8983 23.238 57.8583 23.022 58.9983 23.022ZM58.6203 25.812C58.2843 25.812 57.9903 25.89 57.7383 26.046C57.4983 26.19 57.2883 26.388 57.1083 26.64C56.9403 26.892 56.8023 27.174 56.6943 27.486C56.5983 27.798 56.5203 28.122 56.4603 28.458C56.4003 28.782 56.3583 29.1 56.3343 29.412C56.3223 29.712 56.3163 29.982 56.3163 30.222C56.3163 31.314 56.4483 32.112 56.7123 32.616C56.9883 33.12 57.3783 33.372 57.8823 33.372C58.3263 33.372 58.6863 33.198 58.9623 32.85C59.2503 32.49 59.4723 32.064 59.6283 31.572C59.7843 31.068 59.8863 30.552 59.9343 30.024C59.9943 29.484 60.0243 29.028 60.0243 28.656C60.0243 27.78 59.9163 27.09 59.7003 26.586C59.4843 26.07 59.1243 25.812 58.6203 25.812ZM67.84 35.73C67.756 35.91 67.63 36 67.462 36H66.814C66.214 36 65.722 35.904 65.338 35.712C64.966 35.52 64.78 35.232 64.78 34.848C64.78 34.728 64.804 34.59 64.852 34.434C64.912 34.266 65.002 34.05 65.122 33.786C65.254 33.522 65.428 33.192 65.644 32.796C65.86 32.388 66.13 31.884 66.454 31.284C66.898 30.456 67.276 29.754 67.588 29.178C67.9 28.602 68.152 28.122 68.344 27.738C68.548 27.342 68.71 27.03 68.83 26.802C68.95 26.562 69.04 26.376 69.1 26.244C69.172 26.1 69.22 25.998 69.244 25.938C69.268 25.866 69.298 25.8 69.334 25.74H65.05C64.954 25.74 64.894 25.722 64.87 25.686C64.858 25.65 64.852 25.584 64.852 25.488L64.906 24.48C64.918 24.324 64.936 24.174 64.96 24.03C64.996 23.874 65.056 23.736 65.14 23.616C65.236 23.496 65.368 23.4 65.536 23.328C65.704 23.256 65.926 23.22 66.202 23.22H72.898C72.97 23.22 73.036 23.238 73.096 23.274C73.156 23.31 73.186 23.376 73.186 23.472L73.114 24.444C73.09 24.648 73.06 24.804 73.024 24.912C72.988 25.02 72.946 25.122 72.898 25.218C72.322 26.37 71.83 27.36 71.422 28.188C71.014 29.016 70.654 29.736 70.342 30.348C70.042 30.96 69.784 31.494 69.568 31.95C69.352 32.394 69.148 32.814 68.956 33.21C68.776 33.606 68.596 34.002 68.416 34.398C68.248 34.794 68.056 35.238 67.84 35.73ZM74.0594 32.796C74.5634 32.796 74.9234 32.922 75.1394 33.174C75.3554 33.414 75.4634 33.756 75.4634 34.2C75.4634 34.38 75.4394 34.59 75.3914 34.83C75.3434 35.058 75.2534 35.274 75.1214 35.478C75.0014 35.67 74.8274 35.838 74.5994 35.982C74.3714 36.114 74.0714 36.18 73.6994 36.18C73.1474 36.18 72.7754 36.042 72.5834 35.766C72.3914 35.478 72.2954 35.124 72.2954 34.704C72.2954 34.464 72.3254 34.23 72.3854 34.002C72.4454 33.774 72.5414 33.57 72.6734 33.39C72.8054 33.21 72.9854 33.066 73.2134 32.958C73.4414 32.85 73.7234 32.796 74.0594 32.796ZM78.0262 32.544C77.5582 32.544 77.1802 32.466 76.8922 32.31C76.6162 32.142 76.4782 31.866 76.4782 31.482C76.4782 31.338 76.4962 31.176 76.5322 30.996C76.5802 30.804 76.6402 30.564 76.7122 30.276C76.7962 29.976 76.8982 29.61 77.0182 29.178C77.1502 28.746 77.3062 28.212 77.4862 27.576C77.6062 27.156 77.7082 26.778 77.7922 26.442C77.8882 26.094 77.9662 25.776 78.0262 25.488C78.0862 25.2 78.1282 24.936 78.1522 24.696C78.1882 24.444 78.2062 24.198 78.2062 23.958C78.2062 23.814 78.2182 23.658 78.2422 23.49C78.2782 23.31 78.3622 23.22 78.4942 23.22H79.3042C79.9882 23.22 80.4562 23.34 80.7082 23.58C80.9722 23.82 81.1042 24.228 81.1042 24.804C81.1042 25.02 81.0862 25.266 81.0502 25.542C81.0142 25.818 80.9482 26.16 80.8522 26.568C80.7682 26.976 80.6542 27.462 80.5102 28.026C80.3782 28.59 80.2102 29.268 80.0062 30.06H82.4182C82.4542 29.64 82.4902 29.178 82.5262 28.674C82.5742 28.158 82.6162 27.66 82.6522 27.18C82.6882 26.7 82.7182 26.268 82.7422 25.884C82.7782 25.488 82.8022 25.2 82.8142 25.02C82.8382 24.6 82.8502 24.27 82.8502 24.03C82.8502 23.79 82.8562 23.61 82.8682 23.49C82.8922 23.37 82.9222 23.298 82.9582 23.274C83.0062 23.238 83.0782 23.22 83.1742 23.22H84.1642C84.5482 23.22 84.8542 23.262 85.0822 23.346C85.3222 23.418 85.5082 23.526 85.6402 23.67C85.7722 23.814 85.8622 23.994 85.9102 24.21C85.9582 24.414 85.9822 24.654 85.9822 24.93C85.9822 25.206 85.9642 25.656 85.9282 26.28C85.9042 26.892 85.8622 27.588 85.8022 28.368C85.7542 29.136 85.7002 29.934 85.6402 30.762C85.5922 31.59 85.5382 32.358 85.4782 33.066C85.4302 33.774 85.3882 34.374 85.3522 34.866C85.3162 35.358 85.2922 35.646 85.2802 35.73C85.2682 35.826 85.2442 35.898 85.2082 35.946C85.1722 35.982 85.1002 36 84.9922 36H84.0022C83.3422 36 82.8622 35.868 82.5622 35.604C82.2742 35.34 82.1302 34.962 82.1302 34.47C82.1302 34.374 82.1362 34.182 82.1482 33.894C82.1602 33.606 82.1842 33.156 82.2202 32.544H78.0262ZM96.9736 31.356C96.9736 31.848 96.8776 32.376 96.6856 32.94C96.4936 33.504 96.1876 34.026 95.7676 34.506C95.3476 34.986 94.8016 35.388 94.1296 35.712C93.4696 36.024 92.6656 36.18 91.7176 36.18C91.0336 36.18 90.4276 36.096 89.8996 35.928C89.3716 35.748 88.9276 35.502 88.5676 35.19C88.2076 34.878 87.9316 34.506 87.7396 34.074C87.5596 33.642 87.4696 33.174 87.4696 32.67C87.4696 31.998 87.6256 31.386 87.9376 30.834C88.2616 30.27 88.7476 29.778 89.3956 29.358C89.0596 29.214 88.7716 28.956 88.5316 28.584C88.3036 28.2 88.1896 27.702 88.1896 27.09C88.1896 26.622 88.2736 26.148 88.4416 25.668C88.6096 25.188 88.8796 24.756 89.2516 24.372C89.6356 23.988 90.1276 23.676 90.7276 23.436C91.3276 23.184 92.0596 23.058 92.9236 23.058C93.6556 23.058 94.2736 23.148 94.7776 23.328C95.2816 23.508 95.6836 23.748 95.9836 24.048C96.2956 24.348 96.5176 24.696 96.6496 25.092C96.7816 25.476 96.8476 25.872 96.8476 26.28C96.8476 26.76 96.7456 27.222 96.5416 27.666C96.3496 28.11 95.9716 28.518 95.4076 28.89C95.9476 29.166 96.3436 29.502 96.5956 29.898C96.8476 30.294 96.9736 30.78 96.9736 31.356ZM92.4916 30.024C92.1436 30.024 91.8616 30.096 91.6456 30.24C91.4416 30.384 91.2856 30.564 91.1776 30.78C91.0696 30.984 90.9976 31.2 90.9616 31.428C90.9256 31.656 90.9076 31.848 90.9076 32.004C90.9076 32.916 91.2796 33.372 92.0236 33.372C92.3356 33.372 92.5876 33.294 92.7796 33.138C92.9836 32.982 93.1396 32.796 93.2476 32.58C93.3556 32.352 93.4276 32.118 93.4636 31.878C93.5116 31.626 93.5356 31.41 93.5356 31.23C93.5356 30.762 93.4396 30.444 93.2476 30.276C93.0556 30.108 92.8036 30.024 92.4916 30.024ZM92.8156 25.578C92.5516 25.578 92.3356 25.644 92.1676 25.776C91.9996 25.896 91.8676 26.046 91.7716 26.226C91.6756 26.394 91.6096 26.58 91.5736 26.784C91.5376 26.976 91.5196 27.144 91.5196 27.288C91.5196 27.672 91.5976 27.948 91.7536 28.116C91.9216 28.284 92.1556 28.368 92.4556 28.368C92.7316 28.368 92.9536 28.308 93.1216 28.188C93.3016 28.056 93.4396 27.9 93.5356 27.72C93.6436 27.54 93.7156 27.348 93.7516 27.144C93.7876 26.94 93.8056 26.754 93.8056 26.586C93.8056 26.298 93.7276 26.058 93.5716 25.866C93.4156 25.674 93.1636 25.578 92.8156 25.578Z" fill="#8E9FCC"/>
<path d="M70 14L55 44" stroke="#8E9FCC" stroke-width="3" stroke-linecap="round"/>
<path d="M111.817 26.544C111.817 25.392 111.999 24.3893 112.361 23.536C112.724 22.6827 113.204 21.9573 113.801 21.36C114.42 20.7627 115.113 20.2933 115.881 19.952C116.671 19.5893 117.492 19.3227 118.345 19.152C118.388 18.8107 118.409 18.4587 118.409 18.096C118.431 17.712 118.463 17.3707 118.505 17.072C118.569 16.7733 118.655 16.528 118.761 16.336C118.868 16.144 119.028 16.048 119.241 16.048C120.308 16.048 121.023 16.3147 121.385 16.848C121.769 17.36 121.961 18.096 121.961 19.056C123.455 19.2907 124.564 19.824 125.289 20.656C126.036 21.4667 126.409 22.48 126.409 23.696C126.409 24.8907 126.079 25.808 125.417 26.448C124.756 27.0667 123.807 27.376 122.569 27.376C122.185 27.376 121.94 27.344 121.833 27.28C121.727 27.1947 121.673 27.0347 121.673 26.8C121.673 26.5867 121.652 26.3093 121.609 25.968C121.588 25.6267 121.513 25.296 121.385 24.976C121.257 24.656 121.055 24.3893 120.777 24.176C120.5 23.9413 120.116 23.824 119.625 23.824C118.943 23.824 118.335 24.0373 117.801 24.464C117.268 24.8693 117.001 25.4027 117.001 26.064C117.001 26.64 117.215 27.1093 117.641 27.472C118.089 27.8347 118.644 28.176 119.305 28.496C119.967 28.7947 120.681 29.104 121.449 29.424C122.239 29.744 122.964 30.1707 123.625 30.704C124.287 31.216 124.831 31.8667 125.257 32.656C125.705 33.424 125.929 34.4053 125.929 35.6C125.929 37.3067 125.439 38.768 124.457 39.984C123.476 41.2 122.004 41.9467 120.041 42.224L119.785 44.688C119.743 44.944 119.679 45.1147 119.593 45.2C119.529 45.2853 119.359 45.328 119.081 45.328C118.548 45.328 118.111 45.2533 117.769 45.104C117.428 44.976 117.161 44.7733 116.969 44.496C116.777 44.24 116.639 43.9093 116.553 43.504C116.489 43.12 116.457 42.672 116.457 42.16C115.647 42.032 114.911 41.84 114.249 41.584C113.588 41.3067 113.023 41.0187 112.553 40.72C112.084 40.4 111.711 40.08 111.433 39.76C111.177 39.4187 111.049 39.0987 111.049 38.8C111.049 37.392 111.124 36.3787 111.273 35.76C111.444 35.1413 111.743 34.832 112.169 34.832C112.468 34.832 112.777 34.96 113.097 35.216C113.439 35.472 113.823 35.76 114.249 36.08C114.676 36.4 115.167 36.688 115.721 36.944C116.297 37.2 116.959 37.328 117.705 37.328C118.004 37.328 118.292 37.3067 118.569 37.264C118.868 37.2 119.124 37.104 119.337 36.976C119.572 36.848 119.753 36.6773 119.881 36.464C120.031 36.2507 120.105 35.9947 120.105 35.696C120.105 35.1627 119.903 34.736 119.497 34.416C119.092 34.096 118.58 33.808 117.961 33.552C117.343 33.2747 116.671 32.9973 115.945 32.72C115.241 32.4213 114.58 32.0267 113.961 31.536C113.343 31.024 112.831 30.3733 112.425 29.584C112.02 28.7947 111.817 27.7813 111.817 26.544ZM134.516 37.36C135.518 37.36 136.35 37.1467 137.012 36.72C137.694 36.2933 138.228 35.7707 138.612 35.152C139.017 34.5333 139.305 33.8827 139.476 33.2C139.646 32.5173 139.732 31.9093 139.732 31.376C139.732 31.0773 139.689 30.8747 139.604 30.768C139.518 30.8747 139.358 31.0773 139.124 31.376C138.91 31.6747 138.601 31.984 138.196 32.304C137.812 32.624 137.31 32.912 136.692 33.168C136.073 33.4027 135.337 33.52 134.484 33.52C133.78 33.52 133.076 33.424 132.372 33.232C131.689 33.0187 131.07 32.6773 130.516 32.208C129.982 31.7173 129.545 31.088 129.204 30.32C128.862 29.5307 128.692 28.56 128.692 27.408C128.692 26.2347 128.884 25.136 129.268 24.112C129.652 23.088 130.217 22.192 130.964 21.424C131.71 20.656 132.649 20.048 133.78 19.6C134.91 19.152 136.212 18.928 137.684 18.928C139.284 18.928 140.585 19.1947 141.588 19.728C142.612 20.24 143.412 20.9333 143.988 21.808C144.564 22.6613 144.958 23.664 145.172 24.816C145.385 25.968 145.492 27.1627 145.492 28.4C145.492 30.256 145.289 32.0267 144.884 33.712C144.478 35.3973 143.828 36.88 142.932 38.16C142.036 39.44 140.873 40.4533 139.444 41.2C138.014 41.9467 136.265 42.32 134.196 42.32C133.172 42.32 132.297 42.224 131.572 42.032C130.846 41.84 130.249 41.5733 129.78 41.232C129.332 40.8907 129.001 40.496 128.788 40.048C128.596 39.5787 128.5 39.0667 128.5 38.512C128.5 37.488 128.83 36.7307 129.492 36.24C130.174 35.7493 131.145 35.504 132.404 35.504C132.638 35.504 132.777 35.5253 132.82 35.568C132.862 35.6107 132.905 35.7173 132.948 35.888C133.054 36.464 133.193 36.8587 133.364 37.072C133.556 37.264 133.94 37.36 134.516 37.36ZM136.66 29.68C137.193 29.68 137.641 29.5627 138.004 29.328C138.366 29.0933 138.644 28.8053 138.836 28.464C139.049 28.1227 139.198 27.76 139.284 27.376C139.369 26.992 139.412 26.64 139.412 26.32C139.412 25.5733 139.22 24.9867 138.836 24.56C138.452 24.1333 137.94 23.92 137.3 23.92C136.788 23.92 136.361 24.048 136.02 24.304C135.678 24.56 135.401 24.88 135.188 25.264C134.996 25.6267 134.857 26.0213 134.772 26.448C134.686 26.8533 134.644 27.2053 134.644 27.504C134.644 28.144 134.804 28.6667 135.124 29.072C135.444 29.4773 135.956 29.68 136.66 29.68ZM153.984 37.36C154.987 37.36 155.819 37.1467 156.48 36.72C157.163 36.2933 157.696 35.7707 158.08 35.152C158.486 34.5333 158.774 33.8827 158.944 33.2C159.115 32.5173 159.2 31.9093 159.2 31.376C159.2 31.0773 159.158 30.8747 159.072 30.768C158.987 30.8747 158.827 31.0773 158.592 31.376C158.379 31.6747 158.07 31.984 157.664 32.304C157.28 32.624 156.779 32.912 156.16 33.168C155.542 33.4027 154.806 33.52 153.952 33.52C153.248 33.52 152.544 33.424 151.84 33.232C151.158 33.0187 150.539 32.6773 149.984 32.208C149.451 31.7173 149.014 31.088 148.672 30.32C148.331 29.5307 148.16 28.56 148.16 27.408C148.16 26.2347 148.352 25.136 148.736 24.112C149.12 23.088 149.686 22.192 150.432 21.424C151.179 20.656 152.118 20.048 153.248 19.6C154.379 19.152 155.68 18.928 157.152 18.928C158.752 18.928 160.054 19.1947 161.056 19.728C162.08 20.24 162.88 20.9333 163.456 21.808C164.032 22.6613 164.427 23.664 164.64 24.816C164.854 25.968 164.96 27.1627 164.96 28.4C164.96 30.256 164.758 32.0267 164.352 33.712C163.947 35.3973 163.296 36.88 162.4 38.16C161.504 39.44 160.342 40.4533 158.912 41.2C157.483 41.9467 155.734 42.32 153.664 42.32C152.64 42.32 151.766 42.224 151.04 42.032C150.315 41.84 149.718 41.5733 149.248 41.232C148.8 40.8907 148.47 40.496 148.256 40.048C148.064 39.5787 147.968 39.0667 147.968 38.512C147.968 37.488 148.299 36.7307 148.96 36.24C149.643 35.7493 150.614 35.504 151.872 35.504C152.107 35.504 152.246 35.5253 152.288 35.568C152.331 35.6107 152.374 35.7173 152.416 35.888C152.523 36.464 152.662 36.8587 152.832 37.072C153.024 37.264 153.408 37.36 153.984 37.36ZM156.128 29.68C156.662 29.68 157.11 29.5627 157.472 29.328C157.835 29.0933 158.112 28.8053 158.304 28.464C158.518 28.1227 158.667 27.76 158.752 27.376C158.838 26.992 158.88 26.64 158.88 26.32C158.88 25.5733 158.688 24.9867 158.304 24.56C157.92 24.1333 157.408 23.92 156.768 23.92C156.256 23.92 155.83 24.048 155.488 24.304C155.147 24.56 154.87 24.88 154.656 25.264C154.464 25.6267 154.326 26.0213 154.24 26.448C154.155 26.8533 154.112 27.2053 154.112 27.504C154.112 28.144 154.272 28.6667 154.592 29.072C154.912 29.4773 155.424 29.68 156.128 29.68ZM169.59 36.304C170.486 36.304 171.126 36.528 171.51 36.976C171.894 37.4027 172.086 38.0107 172.086 38.8C172.086 39.12 172.043 39.4933 171.958 39.92C171.873 40.3253 171.713 40.7093 171.478 41.072C171.265 41.4133 170.955 41.712 170.55 41.968C170.145 42.2027 169.611 42.32 168.95 42.32C167.969 42.32 167.307 42.0747 166.966 41.584C166.625 41.072 166.454 40.4427 166.454 39.696C166.454 39.2693 166.507 38.8533 166.614 38.448C166.721 38.0427 166.891 37.68 167.126 37.36C167.361 37.04 167.681 36.784 168.086 36.592C168.491 36.4 168.993 36.304 169.59 36.304ZM181.109 37.36C182.112 37.36 182.944 37.1467 183.605 36.72C184.288 36.2933 184.821 35.7707 185.205 35.152C185.611 34.5333 185.899 33.8827 186.069 33.2C186.24 32.5173 186.325 31.9093 186.325 31.376C186.325 31.0773 186.283 30.8747 186.197 30.768C186.112 30.8747 185.952 31.0773 185.717 31.376C185.504 31.6747 185.195 31.984 184.789 32.304C184.405 32.624 183.904 32.912 183.285 33.168C182.667 33.4027 181.931 33.52 181.077 33.52C180.373 33.52 179.669 33.424 178.965 33.232C178.283 33.0187 177.664 32.6773 177.109 32.208C176.576 31.7173 176.139 31.088 175.797 30.32C175.456 29.5307 175.285 28.56 175.285 27.408C175.285 26.2347 175.477 25.136 175.861 24.112C176.245 23.088 176.811 22.192 177.557 21.424C178.304 20.656 179.243 20.048 180.373 19.6C181.504 19.152 182.805 18.928 184.277 18.928C185.877 18.928 187.179 19.1947 188.181 19.728C189.205 20.24 190.005 20.9333 190.581 21.808C191.157 22.6613 191.552 23.664 191.765 24.816C191.979 25.968 192.085 27.1627 192.085 28.4C192.085 30.256 191.883 32.0267 191.477 33.712C191.072 35.3973 190.421 36.88 189.525 38.16C188.629 39.44 187.467 40.4533 186.037 41.2C184.608 41.9467 182.859 42.32 180.789 42.32C179.765 42.32 178.891 42.224 178.165 42.032C177.44 41.84 176.843 41.5733 176.373 41.232C175.925 40.8907 175.595 40.496 175.381 40.048C175.189 39.5787 175.093 39.0667 175.093 38.512C175.093 37.488 175.424 36.7307 176.085 36.24C176.768 35.7493 177.739 35.504 178.997 35.504C179.232 35.504 179.371 35.5253 179.413 35.568C179.456 35.6107 179.499 35.7173 179.541 35.888C179.648 36.464 179.787 36.8587 179.957 37.072C180.149 37.264 180.533 37.36 181.109 37.36ZM183.253 29.68C183.787 29.68 184.235 29.5627 184.597 29.328C184.96 29.0933 185.237 28.8053 185.429 28.464C185.643 28.1227 185.792 27.76 185.877 27.376C185.963 26.992 186.005 26.64 186.005 26.32C186.005 25.5733 185.813 24.9867 185.429 24.56C185.045 24.1333 184.533 23.92 183.893 23.92C183.381 23.92 182.955 24.048 182.613 24.304C182.272 24.56 181.995 24.88 181.781 25.264C181.589 25.6267 181.451 26.0213 181.365 26.448C181.28 26.8533 181.237 27.2053 181.237 27.504C181.237 28.144 181.397 28.6667 181.717 29.072C182.037 29.4773 182.549 29.68 183.253 29.68ZM200.578 37.36C201.581 37.36 202.413 37.1467 203.074 36.72C203.757 36.2933 204.29 35.7707 204.674 35.152C205.079 34.5333 205.367 33.8827 205.538 33.2C205.709 32.5173 205.794 31.9093 205.794 31.376C205.794 31.0773 205.751 30.8747 205.666 30.768C205.581 30.8747 205.421 31.0773 205.186 31.376C204.973 31.6747 204.663 31.984 204.258 32.304C203.874 32.624 203.373 32.912 202.754 33.168C202.135 33.4027 201.399 33.52 200.546 33.52C199.842 33.52 199.138 33.424 198.434 33.232C197.751 33.0187 197.133 32.6773 196.578 32.208C196.045 31.7173 195.607 31.088 195.266 30.32C194.925 29.5307 194.754 28.56 194.754 27.408C194.754 26.2347 194.946 25.136 195.33 24.112C195.714 23.088 196.279 22.192 197.026 21.424C197.773 20.656 198.711 20.048 199.842 19.6C200.973 19.152 202.274 18.928 203.746 18.928C205.346 18.928 206.647 19.1947 207.65 19.728C208.674 20.24 209.474 20.9333 210.05 21.808C210.626 22.6613 211.021 23.664 211.234 24.816C211.447 25.968 211.554 27.1627 211.554 28.4C211.554 30.256 211.351 32.0267 210.946 33.712C210.541 35.3973 209.89 36.88 208.994 38.16C208.098 39.44 206.935 40.4533 205.506 41.2C204.077 41.9467 202.327 42.32 200.258 42.32C199.234 42.32 198.359 42.224 197.634 42.032C196.909 41.84 196.311 41.5733 195.842 41.232C195.394 40.8907 195.063 40.496 194.85 40.048C194.658 39.5787 194.562 39.0667 194.562 38.512C194.562 37.488 194.893 36.7307 195.554 36.24C196.237 35.7493 197.207 35.504 198.466 35.504C198.701 35.504 198.839 35.5253 198.882 35.568C198.925 35.6107 198.967 35.7173 199.01 35.888C199.117 36.464 199.255 36.8587 199.426 37.072C199.618 37.264 200.002 37.36 200.578 37.36ZM202.722 29.68C203.255 29.68 203.703 29.5627 204.066 29.328C204.429 29.0933 204.706 28.8053 204.898 28.464C205.111 28.1227 205.261 27.76 205.346 27.376C205.431 26.992 205.474 26.64 205.474 26.32C205.474 25.5733 205.282 24.9867 204.898 24.56C204.514 24.1333 204.002 23.92 203.362 23.92C202.85 23.92 202.423 24.048 202.082 24.304C201.741 24.56 201.463 24.88 201.25 25.264C201.058 25.6267 200.919 26.0213 200.834 26.448C200.749 26.8533 200.706 27.2053 200.706 27.504C200.706 28.144 200.866 28.6667 201.186 29.072C201.506 29.4773 202.018 29.68 202.722 29.68Z" fill="#FA9044"/>
<path d="M227.155 37.866C226.915 37.866 226.735 37.8 226.615 37.668C226.495 37.548 226.435 37.368 226.435 37.128V26.364C226.435 26.124 226.495 25.944 226.615 25.824C226.735 25.692 226.909 25.626 227.137 25.626C227.377 25.626 227.557 25.692 227.677 25.824C227.809 25.944 227.875 26.124 227.875 26.364V28.074L227.677 27.822C227.869 27.138 228.247 26.598 228.811 26.202C229.387 25.794 230.071 25.59 230.863 25.59C231.643 25.59 232.321 25.776 232.897 26.148C233.485 26.508 233.935 27.03 234.247 27.714C234.571 28.386 234.733 29.19 234.733 30.126C234.733 31.05 234.571 31.854 234.247 32.538C233.935 33.21 233.491 33.732 232.915 34.104C232.339 34.476 231.655 34.662 230.863 34.662C230.071 34.662 229.393 34.464 228.829 34.068C228.265 33.66 227.881 33.12 227.677 32.448H227.893V37.128C227.893 37.368 227.827 37.548 227.695 37.668C227.563 37.8 227.383 37.866 227.155 37.866ZM230.557 33.492C231.109 33.492 231.583 33.36 231.979 33.096C232.387 32.832 232.699 32.448 232.915 31.944C233.143 31.44 233.257 30.834 233.257 30.126C233.257 29.034 233.011 28.2 232.519 27.624C232.039 27.048 231.385 26.76 230.557 26.76C230.017 26.76 229.543 26.892 229.135 27.156C228.727 27.408 228.409 27.786 228.181 28.29C227.965 28.782 227.857 29.394 227.857 30.126C227.857 31.206 228.103 32.04 228.595 32.628C229.087 33.204 229.741 33.492 230.557 33.492ZM240.872 34.662C239.948 34.662 239.15 34.482 238.478 34.122C237.818 33.75 237.302 33.228 236.93 32.556C236.57 31.884 236.39 31.08 236.39 30.144C236.39 29.232 236.57 28.44 236.93 27.768C237.29 27.084 237.782 26.55 238.406 26.166C239.042 25.782 239.774 25.59 240.602 25.59C241.19 25.59 241.718 25.692 242.186 25.896C242.654 26.088 243.05 26.37 243.374 26.742C243.71 27.114 243.962 27.564 244.13 28.092C244.31 28.62 244.4 29.214 244.4 29.874C244.4 30.066 244.346 30.21 244.238 30.306C244.13 30.39 243.974 30.432 243.77 30.432H237.506V29.478H243.428L243.14 29.712C243.14 29.064 243.044 28.518 242.852 28.074C242.66 27.618 242.378 27.27 242.006 27.03C241.646 26.79 241.19 26.67 240.638 26.67C240.026 26.67 239.504 26.814 239.072 27.102C238.652 27.378 238.334 27.768 238.118 28.272C237.902 28.764 237.794 29.34 237.794 30V30.108C237.794 31.212 238.058 32.052 238.586 32.628C239.126 33.204 239.888 33.492 240.872 33.492C241.28 33.492 241.682 33.438 242.078 33.33C242.486 33.222 242.882 33.042 243.266 32.79C243.434 32.682 243.584 32.634 243.716 32.646C243.86 32.646 243.974 32.688 244.058 32.772C244.142 32.844 244.196 32.94 244.22 33.06C244.256 33.168 244.244 33.288 244.184 33.42C244.136 33.552 244.034 33.666 243.878 33.762C243.482 34.05 243.014 34.272 242.474 34.428C241.934 34.584 241.4 34.662 240.872 34.662ZM247.248 34.626C247.008 34.626 246.822 34.56 246.69 34.428C246.57 34.296 246.51 34.11 246.51 33.87V26.364C246.51 26.124 246.57 25.944 246.69 25.824C246.81 25.692 246.984 25.626 247.212 25.626C247.44 25.626 247.614 25.692 247.734 25.824C247.866 25.944 247.932 26.124 247.932 26.364V27.822H247.752C247.944 27.114 248.31 26.568 248.85 26.184C249.39 25.8 250.056 25.596 250.848 25.572C251.028 25.56 251.172 25.602 251.28 25.698C251.388 25.782 251.448 25.932 251.46 26.148C251.472 26.352 251.424 26.514 251.316 26.634C251.208 26.754 251.04 26.826 250.812 26.85L250.524 26.886C249.708 26.958 249.078 27.222 248.634 27.678C248.202 28.122 247.986 28.734 247.986 29.514V33.87C247.986 34.11 247.92 34.296 247.788 34.428C247.668 34.56 247.488 34.626 247.248 34.626ZM259.545 37.866C259.365 37.866 259.221 37.818 259.113 37.722C259.005 37.626 258.939 37.494 258.915 37.326C258.903 37.17 258.933 37.008 259.005 36.84L260.247 34.05V34.68L256.791 26.652C256.719 26.472 256.695 26.304 256.719 26.148C256.743 25.992 256.815 25.866 256.935 25.77C257.055 25.674 257.223 25.626 257.439 25.626C257.631 25.626 257.781 25.668 257.889 25.752C257.997 25.836 258.093 25.986 258.177 26.202L261.129 33.438H260.643L263.631 26.202C263.727 25.986 263.829 25.836 263.937 25.752C264.045 25.668 264.201 25.626 264.405 25.626C264.597 25.626 264.741 25.674 264.837 25.77C264.945 25.866 265.005 25.992 265.017 26.148C265.041 26.292 265.017 26.454 264.945 26.634L260.337 37.29C260.241 37.506 260.133 37.656 260.013 37.74C259.905 37.824 259.749 37.866 259.545 37.866ZM270.666 34.662C269.742 34.662 268.944 34.482 268.272 34.122C267.612 33.75 267.096 33.228 266.724 32.556C266.364 31.884 266.184 31.08 266.184 30.144C266.184 29.232 266.364 28.44 266.724 27.768C267.084 27.084 267.576 26.55 268.2 26.166C268.836 25.782 269.568 25.59 270.396 25.59C270.984 25.59 271.512 25.692 271.98 25.896C272.448 26.088 272.844 26.37 273.168 26.742C273.504 27.114 273.756 27.564 273.924 28.092C274.104 28.62 274.194 29.214 274.194 29.874C274.194 30.066 274.14 30.21 274.032 30.306C273.924 30.39 273.768 30.432 273.564 30.432H267.3V29.478H273.222L272.934 29.712C272.934 29.064 272.838 28.518 272.646 28.074C272.454 27.618 272.172 27.27 271.8 27.03C271.44 26.79 270.984 26.67 270.432 26.67C269.82 26.67 269.298 26.814 268.866 27.102C268.446 27.378 268.128 27.768 267.912 28.272C267.696 28.764 267.588 29.34 267.588 30V30.108C267.588 31.212 267.852 32.052 268.38 32.628C268.92 33.204 269.682 33.492 270.666 33.492C271.074 33.492 271.476 33.438 271.872 33.33C272.28 33.222 272.676 33.042 273.06 32.79C273.228 32.682 273.378 32.634 273.51 32.646C273.654 32.646 273.768 32.688 273.852 32.772C273.936 32.844 273.99 32.94 274.014 33.06C274.05 33.168 274.038 33.288 273.978 33.42C273.93 33.552 273.828 33.666 273.672 33.762C273.276 34.05 272.808 34.272 272.268 34.428C271.728 34.584 271.194 34.662 270.666 34.662ZM279.059 34.662C278.459 34.662 277.919 34.548 277.439 34.32C276.971 34.08 276.599 33.756 276.323 33.348C276.047 32.94 275.909 32.484 275.909 31.98C275.909 31.332 276.071 30.822 276.395 30.45C276.731 30.078 277.277 29.814 278.033 29.658C278.801 29.502 279.845 29.424 281.165 29.424H281.975V30.378H281.183C280.211 30.378 279.443 30.426 278.879 30.522C278.327 30.606 277.937 30.756 277.709 30.972C277.493 31.188 277.385 31.494 277.385 31.89C277.385 32.382 277.553 32.784 277.889 33.096C278.237 33.408 278.705 33.564 279.293 33.564C279.773 33.564 280.193 33.45 280.553 33.222C280.925 32.994 281.213 32.682 281.417 32.286C281.633 31.89 281.741 31.434 281.741 30.918V28.866C281.741 28.122 281.591 27.588 281.291 27.264C280.991 26.928 280.499 26.76 279.815 26.76C279.395 26.76 278.975 26.814 278.555 26.922C278.135 27.03 277.691 27.204 277.223 27.444C277.055 27.528 276.911 27.558 276.791 27.534C276.671 27.498 276.575 27.432 276.503 27.336C276.431 27.24 276.389 27.132 276.377 27.012C276.365 26.88 276.389 26.754 276.449 26.634C276.521 26.514 276.629 26.418 276.773 26.346C277.301 26.082 277.823 25.89 278.339 25.77C278.855 25.65 279.347 25.59 279.815 25.59C280.571 25.59 281.195 25.716 281.687 25.968C282.179 26.208 282.545 26.58 282.785 27.084C283.025 27.576 283.145 28.212 283.145 28.992V33.87C283.145 34.11 283.085 34.296 282.965 34.428C282.857 34.56 282.695 34.626 282.479 34.626C282.251 34.626 282.077 34.56 281.957 34.428C281.837 34.296 281.777 34.11 281.777 33.87V32.466H281.939C281.843 32.922 281.657 33.312 281.381 33.636C281.117 33.96 280.787 34.212 280.391 34.392C279.995 34.572 279.551 34.662 279.059 34.662ZM286.587 34.626C286.347 34.626 286.161 34.56 286.029 34.428C285.909 34.296 285.849 34.11 285.849 33.87V26.364C285.849 26.124 285.909 25.944 286.029 25.824C286.149 25.692 286.323 25.626 286.551 25.626C286.779 25.626 286.953 25.692 287.073 25.824C287.205 25.944 287.271 26.124 287.271 26.364V27.822H287.091C287.283 27.114 287.649 26.568 288.189 26.184C288.729 25.8 289.395 25.596 290.187 25.572C290.367 25.56 290.511 25.602 290.619 25.698C290.727 25.782 290.787 25.932 290.799 26.148C290.811 26.352 290.763 26.514 290.655 26.634C290.547 26.754 290.379 26.826 290.151 26.85L289.863 26.886C289.047 26.958 288.417 27.222 287.973 27.678C287.541 28.122 287.325 28.734 287.325 29.514V33.87C287.325 34.11 287.259 34.296 287.127 34.428C287.007 34.56 286.827 34.626 286.587 34.626Z" fill="#8E9FCC"/>
<rect x="0.5" y="0.5" width="322" height="57" rx="28.5" stroke="#8E9FCC"/>
</g>
<defs>
<filter id="filter0_b_7_13885" x="-3" y="-3" width="329" height="64" filterUnits="userSpaceOnUse" color-interpolation-filters="sRGB">
<feFlood flood-opacity="0" result="BackgroundImageFix"/>
<feGaussianBlur in="BackgroundImageFix" stdDeviation="1.5"/>
<feComposite in2="SourceAlpha" operator="in" result="effect1_backgroundBlur_7_13885"/>
<feBlend mode="normal" in="SourceGraphic" in2="effect1_backgroundBlur_7_13885" result="shape"/>
</filter>
</defs>
</svg>
