<svg width="207" height="145" viewBox="0 0 207 145" fill="none" xmlns="http://www.w3.org/2000/svg" xmlns:xlink="http://www.w3.org/1999/xlink">
<path d="M180.41 49.6676C189.784 57.0764 206.779 67.186 199.875 78.8749C191.246 93.4861 175.392 78.8849 167.479 75.3995" stroke="white" stroke-width="3" stroke-linecap="round"/>
<circle cx="177.178" cy="61.1778" r="3.17778" fill="white"/>
<path d="M76.1217 113.346L67.4852 130.803C67.9016 134.467 67.9654 141.598 64.8897 140.799C61.0449 139.801 58.3685 137.464 59.7957 128.806L66.7244 108.444" stroke="url(#paint0_linear_58_3262)" stroke-width="3" stroke-linecap="round"/>
<path d="M100.895 113.606L96.9225 132.672C98.2465 136.115 100.1 143 96.9225 143C92.9502 143 89.7725 141.411 88.978 132.672L90.5669 111.222" stroke="url(#paint1_linear_58_3262)" stroke-width="3" stroke-linecap="round"/>
<path d="M163.629 85.0291L180.174 95.3046C183.862 95.2427 190.965 95.865 189.874 98.8497C188.511 102.581 185.928 105.02 177.447 102.766L157.846 93.9113" stroke="url(#paint2_linear_58_3262)" stroke-width="3" stroke-linecap="round"/>
<path d="M143.932 93.1316L155.97 108.442C159.457 109.644 165.92 112.656 163.876 115.088C161.319 118.128 158.058 119.538 150.858 114.523L135.462 99.5031" stroke="url(#paint3_linear_58_3262)" stroke-width="3" stroke-linecap="round"/>
<rect opacity="0.92" width="206.556" height="138.233" fill="url(#pattern0)"/>
<path d="M149.603 42.2395C144.975 38.7502 134.27 34.6553 126.847 44.573C126.122 45.5414 126.164 46.877 126.947 47.7997C132.528 54.3835 145 62.5878 159.013 52.0569" stroke="white" stroke-width="3" stroke-linecap="round"/>
<defs>
<pattern id="pattern0" patternContentUnits="objectBoundingBox" width="1" height="1">
<use xlink:href="#image0_58_3262" transform="matrix(0.000334615 0 0 0.0005 -0.00192309 0)"/>
</pattern>
<linearGradient id="paint0_linear_58_3262" x1="70.9536" y1="109.542" x2="62.9673" y2="140.3" gradientUnits="userSpaceOnUse">
<stop stop-color="white" stop-opacity="0"/>
<stop offset="1" stop-color="white"/>
</linearGradient>
<linearGradient id="paint1_linear_58_3262" x1="94.9364" y1="111.222" x2="94.9364" y2="143" gradientUnits="userSpaceOnUse">
<stop stop-color="white" stop-opacity="0"/>
<stop offset="1" stop-color="white"/>
</linearGradient>
<linearGradient id="paint2_linear_58_3262" x1="159.345" y1="89.8074" x2="189.193" y2="100.715" gradientUnits="userSpaceOnUse">
<stop stop-color="white" stop-opacity="0"/>
<stop offset="1" stop-color="white"/>
</linearGradient>
<linearGradient id="paint3_linear_58_3262" x1="138.274" y1="96.1586" x2="162.597" y2="116.608" gradientUnits="userSpaceOnUse">
<stop stop-color="white" stop-opacity="0"/>
<stop offset="1" stop-color="white"/>
</linearGradient>
<image id="image0_58_3262" width="3000" height="2000" href="top_sheep.png"/>
</defs>
</svg>